<svg xmlns="http://www.w3.org/2000/svg" viewBox="0 0 100 100">
  <defs>
    <linearGradient id="grad" x1="0%" y1="0%" x2="100%" y2="100%">
      <stop offset="0%" style="stop-color:#3b82f6;stop-opacity:1" />
      <stop offset="100%" style="stop-color:#8b5cf6;stop-opacity:1" />
    </linearGradient>
  </defs>

  <!-- Background rounded square with gradient -->
  <rect width="100" height="100" rx="16" fill="url(#grad)"/>

  <!-- Twemoji link icon (embedded, colored white for contrast) -->
  <g transform="translate(21, 21)">
    <g transform="scale(1.6)">
      <path fill="#FFFFFF" d="M15 9l6-6s6-6 12 0 0 12 0 12l-8 8s-6 6-12 0c-1.125-1.125-1.822-2.62-1.822-2.62l3.353-3.348S14.396 18.396 16 20c0 0 3 3 6 0l8-8s3-3 0-6-6 0-6 0l-3.729 3.729s-1.854-1.521-5.646-.354L15 9z"/>
      <path fill="#FFFFFF" d="M20.845 27l-6 6s-6 6-12 0 0-12 0-12l8-8s6-6 12 0c1.125 1.125 1.822 2.62 1.822 2.62l-3.354 3.349s.135-1.365-1.469-2.969c0 0-3-3-6 0l-8 8s-3 3 0 6 6 0 6 0l3.729-3.729s1.854 1.521 5.646.354l-.374.375z"/>
    </g>
  </g>
</svg>
